<?xml version="1.0" encoding="utf-8"?>
<!-- Generator: Adobe Illustrator 24.3.0, SVG Export Plug-In . SVG Version: 6.00 Build 0)  -->
<svg version="1.1" id="Capa_1" xmlns="http://www.w3.org/2000/svg" xmlns:xlink="http://www.w3.org/1999/xlink" x="0px" y="0px"
	 viewBox="0 0 8503.94 1133.86" style="enable-background:new 0 0 8503.94 1133.86;" xml:space="preserve">
<style type="text/css">
	.st0{fill:#FFFFFF;}
</style>
<path class="st0" d="M502.88,859.06C335.25,848.82,167.63,838.57,0,828.32c0.06-1.21,0.11-2.43,0.17-3.65
	c177.35-9.51,354.71-19.03,532.06-28.54c0.18-5.57,0.35-11.14,0.53-16.71c-135.84-9.86-271.67-19.71-407.51-29.57
	c0.1-1.07,0.2-2.14,0.31-3.21c144.55-8.93,289.09-17.87,433.64-26.8c0.04-5.79,0.07-11.58,0.11-17.37
	c-184.59-10.18-369.19-20.35-553.78-30.53c0.04-1.27,0.07-2.54,0.11-3.81c191.74-9.23,383.47-18.46,575.21-27.68
	c0.1-5.05,0.19-10.1,0.29-15.15c-182.4-10.07-364.81-20.13-547.21-30.2c-0.02-1.32-0.04-2.64-0.06-3.97
	c192.85-9.41,385.7-18.81,578.55-28.22c0.33-6.37,0.65-12.74,0.98-19.11c-113.79-7.71-227.59-15.42-341.38-23.13
	c0.08-1.68,0.16-3.36,0.23-5.04c121.88-6.8,243.76-13.61,365.64-20.41c0.11-7.06,0.22-14.12,0.33-21.19
	c-174.13-10.06-348.27-20.12-522.4-30.18c0.09-1.87,0.19-3.74,0.28-5.62c182.53-8.6,365.07-17.21,547.6-25.81
	c0.05-5.63,0.11-11.26,0.16-16.9c-176.75-9.79-353.49-19.57-530.24-29.36c0.08-1.89,0.17-3.77,0.25-5.66
	c187.38-9.12,374.76-18.24,562.14-27.37c0.3-7.51,0.6-15.03,0.9-22.54c-67.27-7.12-134.54-14.24-201.8-21.36
	c0.02-1.79,0.04-3.59,0.06-5.38c74.06-7.01,148.13-14.03,222.19-21.04c-0.15-6.57-0.3-13.14-0.45-19.7
	c-167.72-9.35-335.45-18.69-503.17-28.04c-0.09-2.34-0.18-4.67-0.27-7.01c187.4-5.19,374.77-11.92,562.2-15.09
	c150.1-2.54,300.27-0.8,450.41-0.82c14.28,0,28.65,0.19,42.84,1.62c123.56,12.48,185.03,96.76,160.29,218.3
	c-22.04,108.29-74.98,197.36-165.43,261.52c-24.38,17.29-28.05,35.49-22.9,61.83c12.5,63.92,23.32,128.17,35.96,198.61
	c-79.1,0-151.54,1.15-223.85-1.4c-9.47-0.33-23.72-18.44-26.44-30.43c-12.31-54.31-22.19-109.23-31.02-164.25
	c-3.91-24.34-14.46-34.06-39.48-33.24c-45.71,1.5-91.54,1.61-137.24-0.06c-24.37-0.89-35.94,8.97-43.18,31.23
	c-18.56,57.06-37.74,113.98-59.26,169.96c-4.5,11.71-20.33,27.54-30.59,27.29c-160.95-3.98-321.83-10.3-482.73-16.07
	c-0.02-5.14-0.05-10.29-0.07-15.43c100.15-8.91,200.29-17.82,300.44-26.73C503.22,869.62,503.05,864.34,502.88,859.06z
	 M858.2,509.64c103.45,0,197.25,2.99,290.62-2.07c23.82-1.29,52.67-23.4,68.01-44.19c34.75-47.11,13-87.34-45.99-88.74
	c-79.72-1.89-159.53-1.14-239.26,0.51c-11.39,0.24-28.63,9.25-32.71,18.71C883.88,428.61,873.3,465.28,858.2,509.64z"/>
<path class="st0" d="M3789.56,921.83c32.56-84.39,63.31-164.16,94.12-243.9c56.1-145.19,112.77-290.16,167.88-435.72
	c10.1-26.66,24.06-37.27,53.36-37.03c161.49,1.32,323.03-1.15,484.47,1.88c41.74,0.78,85.22,11.48,124.28,26.83
	c54.59,21.44,74.05,67.65,63.3,125.95c-12.37,67.06-44.02,123.54-95.13,168.3c-20.39,17.86-25.25,30.26-8.45,56.77
	c13.72,21.65,19.64,54.54,15.43,80.23c-23.2,141.64-128.69,245.91-273.11,253.12c-200.98,10.03-402.59,7.42-603.93,9.97
	C3806.6,928.28,3801.39,925.34,3789.56,921.83z M4333.82,493c0.03,1.05,0.07,2.11,0.1,3.16c48.41-2.27,97.02-2.55,145.18-7.38
	c47.16-4.73,81.66-36.54,80.84-68.76c-0.75-29.05-31.92-47.77-84.14-48.49c-59.96-0.82-119.93-0.28-179.9-0.27
	c-81.32,0.01-85.83,4.62-108.98,82.89c-8.29,28.03,2.04,38.03,26.99,38.6C4253.86,493.67,4293.85,493,4333.82,493z M4236.48,770.09
	c0.07,1.26,0.13,2.52,0.2,3.78c52.4-3.44,105.33-3.5,157.03-11.53c34.04-5.29,62.64-28.9,57.78-67.86
	c-4.83-38.73-40.44-39.52-70.23-40.17c-65.51-1.43-131.06-0.79-196.6-0.88c-77.55-0.11-76.59,0.27-101.42,73.1
	c-10.41,30.54-1.66,43.42,29.3,43.52C4153.85,770.2,4195.17,770.09,4236.48,770.09z"/>
<path class="st0" d="M5610.5,484.04c-0.78,10.33-0.43,13.32-1.29,15.91c-45.31,137.27-45.32,137.2-189.56,136.95
	c-125.83-0.22-251.67-0.47-377.5-0.33c-45.84,0.05-62.47,19.29-62.18,70.87c0.23,40.77,26.01,48.31,60.42,48.14
	c138.7-0.66,277.4-0.26,416.1-0.25c15.16,0,30.32,0,53.73,0c-22.57,57.84-40.8,108.46-62.8,157.39c-4,8.9-23.36,15.31-35.67,15.37
	c-173.01,0.87-346.06,2.13-519.04-0.35c-92.41-1.32-149.84-63.02-138.17-153.69c22.36-173.76,84.66-331.81,207.65-461.02
	c66.44-69.81,150.3-104.79,245.38-106.31c160.11-2.57,320.29-0.81,480.44-0.58c8.07,0.01,16.14,2.84,33.8,6.16
	c-21.23,51.38-39.37,100.13-62.34,146.5c-4.27,8.61-27.92,10.53-42.66,10.6c-144.42,0.76-288.86,1.81-433.25-0.26
	c-49.28-0.7-81.15,18.34-103.23,60.88c-21.89,42.17-18.85,49.63,27.76,49.96c74.35,0.53,148.71,0.09,223.07,0.19
	c80.08,0.1,160.15,0.22,240.23,0.67C5583.68,480.95,5595.97,482.82,5610.5,484.04z"/>
<path class="st0" d="M2121.86,927.53c22.46-57.8,41.11-111.59,65.09-162.9c5.23-11.19,29.48-18.83,45.08-19.01
	c157.26-1.81,314.55-0.95,471.8-3.06c21.26-0.29,44.96-8.95,62.56-21c11.06-7.57,19.16-29.85,16.67-43.32
	c-1.75-9.46-23.11-20.44-36.54-21.66c-45.48-4.13-91.32-4.75-137.04-5.71c-65.74-1.39-131.71,1.15-197.19-3.48
	c-104.45-7.37-149.65-71.6-126.56-173.2c33.52-147.48,142.62-257.72,297.11-267.93c176.21-11.64,353.78-2.69,537.45-2.69
	c-21.33,54.38-42.08,111.43-67.04,166.57c-3.88,8.57-26.96,11.72-41.21,11.82c-135.82,1.04-271.67,0.18-407.48,1.7
	c-26.55,0.3-54.68,4.56-78.87,14.68c-13.44,5.62-20.26,27.1-30.06,41.43c14.53,9.06,28.75,25.35,43.63,25.98
	c79.95,3.35,160.07,2.3,240.1,3.87c27,0.53,54.45,1.74,80.79,7.09c94.52,19.19,131.46,73.22,110.04,167.78
	c-29.42,129.84-114.56,272.29-317.27,281.41C2479.01,933.73,2304.46,927.53,2121.86,927.53z"/>
<path class="st0" d="M7897.74,937.42c-59.99-0.01-119.99,0.24-179.98-0.07c-114.58-0.58-167.41-63.06-147.21-177.24
	c24.94-140.95,76.47-271.9,158.24-389.69c59.61-85.88,135.56-150.56,242.83-168.95c12.59-2.16,25.41-4.2,38.13-4.24
	c114.27-0.32,228.55-1.25,342.81,0.14c110.17,1.33,166.83,68.39,147.71,176.2c-25.68,144.74-75.45,281.25-155.38,404.97
	c-68.96,106.73-164.29,168.07-297.2,159.42C7997.91,934.72,7947.74,937.43,7897.74,937.42z M7959.07,760.29
	c19.99,0,40.08-1.33,59.94,0.23c95.63,7.5,158.59-38.47,195.35-122.44c22.22-50.75,42.2-103.06,56.79-156.42
	c20.25-74.08-12.42-114.98-89.77-118.06c-44.19-1.76-88.51-0.05-132.76-0.75c-75.16-1.19-136.44,29.09-170.9,94.22
	c-35.06,66.28-62.8,137.18-86.42,208.49c-16.91,51.04,14.94,89.9,69.31,94.23C7893.24,762.38,7926.24,760.26,7959.07,760.29z"/>
<path class="st0" d="M3444.06,193.61c-35.27,91.88-68.2,177.7-104.76,272.94c41.67,0,75.23,0.11,108.78-0.03
	c50.02-0.2,100.06-1.58,150.05-0.46c26.61,0.6,41.22-8.87,50.69-34.58c25.66-69.67,53.2-138.68,81.94-207.14
	c5.11-12.16,19.23-28.7,29.74-29.11c67.92-2.63,136-1.35,211.25-1.35c-20.16,51.9-37.62,96.74-55.01,141.61
	C3845,520.59,3772.63,705.45,3702.2,891.04c-11.44,30.16-26.34,41.74-59.12,40.17c-59.65-2.86-119.53-0.81-188.78-0.81
	c37.72-97.59,72.35-187.2,111.1-287.45c-36.83,0-65.98,0-95.14,0c-51.45,0.01-102.97,1.58-154.33-0.52
	c-33.03-1.35-51.57,8.28-63.11,41.86c-24.56,71.53-53.49,141.59-82.07,211.67c-4.74,11.62-16.49,28.65-25.5,28.96
	c-69.25,2.42-138.62,1.33-214.04,1.33c22.57-59.12,42.08-110.89,62.08-162.46c68.66-177.09,138.28-353.82,205.51-531.45
	c11.67-30.84,27.41-40.84,59.47-39.45C3317.79,195.45,3377.51,193.61,3444.06,193.61z"/>
<path class="st0" d="M2334.44,195.94c-11.86,31.34-20.14,53.7-28.76,75.93c-80.03,206.33-160.59,412.46-239.64,619.16
	c-10.67,27.9-23.97,39.67-55.48,39.36c-165.73-1.66-331.49-0.78-497.24-0.9c-12.85-0.01-25.79-0.09-38.53-1.57
	c-93.28-10.86-134.36-62.2-120.98-155.41c4.62-32.19,14.43-64.22,26.06-94.72c56.48-148.07,115.04-295.36,171.2-443.55
	c10.69-28.21,24.51-40.38,55.87-38.68c50.91,2.76,102.08,0.74,160.23,0.74c-7.43,21.9-12.05,37.67-18.06,52.89
	c-52.41,132.81-105.27,265.44-157.58,398.29c-24.13,61.28-13.3,77.03,52.98,77.39c77.16,0.41,154.36-1.36,231.45,0.78
	c32.73,0.91,47.91-11.63,59.19-41.46c56.57-149.57,116.04-298.04,172.34-447.7c11.48-30.51,27.49-42.27,59.44-41.08
	C2219.54,197.36,2272.24,195.94,2334.44,195.94z"/>
<path class="st0" d="M7466.63,755.35c-22.31,57.7-39.96,107.22-61.27,155.13c-4.15,9.32-22.45,17.43-34.27,17.5
	c-175.9,0.96-351.84,2.49-527.7-0.5c-91.36-1.56-144.33-63.6-132.61-157.92c21.46-172.8,85.05-328.92,206.77-456.76
	c69.44-72.93,156.8-107.39,257.76-107.25c151.6,0.21,303.19,0.05,454.79,0.05c13.84,0,27.68,0,50.75,0
	c-21.64,54.48-38.44,102.7-60.71,148.24c-4.97,10.16-29.1,15.25-44.46,15.36c-140.15,1.06-280.33,2.03-420.44-0.29
	c-59.57-0.99-104.25,19.85-129.68,72.72c-34.52,71.78-69.85,143.77-96.17,218.71c-22.34,63.61,5.38,94.41,73.43,94.64
	c135.86,0.46,271.73,0.28,407.59,0.36C7425.91,755.35,7441.39,755.35,7466.63,755.35z"/>
<path class="st0" d="M5914.46,927.62c40.8-107.2,76.71-201.68,112.72-296.14c26.44-69.37,52.69-138.82,79.65-207.99
	c12.43-31.9,2.54-44.8-31.53-44.55c-102.65,0.77-205.31,0.28-318.15,0.28c22.04-55.8,40.49-105.82,62.29-154.34
	c3.57-7.94,21.85-13.07,33.35-13.1c300.06-0.67,600.12-0.53,900.18-0.3c6.83,0.01,13.66,2.55,28.52,5.51
	c-19.47,51.12-36.32,100.4-57.85,147.54c-4.19,9.17-26.56,13.9-40.63,14.07c-94.29,1.19-188.62,1.65-282.9-0.01
	c-32.25-0.57-48.79,11.19-60.08,41.39c-56.99,152.44-117.04,303.74-173.16,456.5c-13.6,37.03-33.71,52.48-71.98,51.51
	C6038.39,926.55,5981.82,927.62,5914.46,927.62z"/>
<path class="st0" d="M6547.58,807.86c1.55,88.26-88.82,150.37-155.03,117.88c-16.27-7.99-32.7-33.9-33.39-52.16
	c-2.62-68.96,86.8-128.63,149.84-100.99C6527.05,780.5,6539.81,800.47,6547.58,807.86z"/>
</svg>
